<?xml version="1.0" standalone="no"?>
<!DOCTYPE svg PUBLIC "-//W3C//DTD SVG 20010904//EN"
 "http://www.w3.org/TR/2001/REC-SVG-20010904/DTD/svg10.dtd">
<svg version="1.0" xmlns="http://www.w3.org/2000/svg"
 width="700.000000pt" height="700.000000pt" viewBox="0 0 700.000000 700.000000"
 preserveAspectRatio="xMidYMid meet">
<metadata>
Created by potrace 1.14, written by Peter Selinger 2001-2017
</metadata>
<g transform="translate(0.000000,700.000000) scale(0.100000,-0.100000)"
fill="#000000" stroke="none">
<path d="M4230 5088 c-60 -32 -88 -88 -100 -202 -12 -115 -62 -258 -220 -630
-70 -167 -137 -327 -147 -356 l-18 -52 30 -24 c46 -37 324 -156 375 -162 43
-4 48 -2 73 31 15 20 32 48 37 62 9 24 7 31 -23 59 -19 17 -80 51 -136 76 -55
25 -101 48 -101 52 0 22 182 446 256 595 65 133 97 186 139 232 63 67 85 112
85 173 0 88 -62 151 -161 164 -35 4 -54 0 -89 -18z m134 -79 c39 -31 49 -63
32 -103 -18 -44 -52 -66 -100 -66 -92 0 -115 88 -43 168 26 28 75 29 111 1z"/>
<path d="M2615 5081 c-104 -63 -121 -169 -39 -240 37 -33 44 -36 146 -51 94
-14 274 -77 553 -192 398 -165 475 -193 493 -181 42 26 172 324 172 393 0 20
-8 35 -24 45 -51 34 -100 -5 -185 -150 -41 -71 -50 -80 -73 -78 -36 2 -367
143 -595 253 -145 70 -184 93 -196 116 -20 38 -65 80 -100 93 -44 17 -118 13
-152 -8z m148 -42 c23 -28 24 -135 1 -167 -21 -30 -100 -31 -137 -2 -48 38
-44 149 6 186 30 21 106 12 130 -17z"/>
<path d="M3226 5051 c-10 -11 -24 -40 -31 -65 l-14 -46 32 -25 c60 -45 381
-185 426 -185 19 0 41 42 55 106 13 61 -55 107 -296 200 -100 39 -147 43 -172
15z"/>
<path d="M2752 4557 c-30 -31 -29 -88 1 -122 12 -14 65 -47 117 -73 70 -35 96
-53 98 -68 8 -58 -301 -741 -387 -854 -47 -62 -65 -116 -56 -163 15 -72 96
-157 150 -157 41 0 140 64 158 103 8 17 20 74 26 125 18 150 58 268 259 767
44 110 86 220 93 244 12 42 12 45 -12 64 -57 47 -334 157 -396 157 -18 0 -38
-9 -51 -23z m12 -1188 c51 -40 22 -128 -53 -159 -37 -15 -64 -2 -91 43 -45 73
-10 137 75 137 28 0 51 -7 69 -21z"/>
<path d="M4297 4386 c-32 -29 -70 -105 -132 -259 -55 -140 -55 -158 9 -182 80
-31 82 -28 182 203 76 175 81 212 32 242 -43 26 -60 25 -91 -4z"/>
<path d="M2743 4298 c-13 -6 -36 -32 -53 -58 -36 -56 -118 -268 -127 -326 -5
-35 -2 -44 18 -58 34 -23 81 -20 107 7 42 45 162 329 162 384 0 45 -61 73
-107 51z"/>
<path d="M3177 3788 c-32 -44 -115 -245 -130 -314 l-12 -56 33 -29 c18 -16 42
-29 53 -29 32 0 74 53 109 138 43 104 56 122 85 122 14 0 92 -26 173 -59 376
-150 620 -279 712 -376 19 -20 46 -41 58 -46 56 -22 170 48 192 117 16 46 6
96 -27 134 -36 44 -76 61 -162 72 -106 12 -326 89 -639 222 -313 133 -322 136
-378 136 -37 0 -46 -5 -67 -32z m1174 -389 c32 -23 59 -85 52 -121 -8 -43 -48
-73 -96 -72 -142 3 -180 154 -52 210 33 15 57 10 96 -17z"/>
<path d="M3315 3486 c-29 -43 -44 -99 -34 -118 5 -10 33 -31 61 -47 74 -42
332 -152 364 -154 22 -2 31 6 54 48 43 77 45 91 16 118 -31 29 -354 167 -406
174 -33 5 -40 2 -55 -21z"/>
<path d="M5412 2710 c-60 -13 -101 -38 -139 -88 -43 -57 -60 -135 -44 -204 18
-79 49 -112 149 -159 138 -64 172 -83 193 -105 28 -30 22 -74 -13 -93 -37 -21
-104 -3 -182 50 -33 21 -67 39 -76 39 -9 0 -29 -14 -45 -30 -23 -24 -30 -40
-30 -72 0 -36 6 -46 53 -89 127 -117 310 -122 425 -11 47 45 64 76 78 141 26
124 -37 233 -154 265 -31 9 -81 23 -110 31 -57 15 -107 56 -107 85 0 24 56 70
85 70 12 0 42 -9 66 -20 86 -39 179 -18 179 40 0 96 -182 179 -328 150z"/>
<path d="M1702 2693 c-18 -9 -87 -74 -154 -145 -67 -71 -124 -125 -128 -121
-4 4 -12 46 -18 93 -18 144 -32 160 -138 160 l-54 0 2 -387 3 -388 75 -8 c106
-10 110 -4 110 162 l0 126 129 -132 c126 -129 180 -173 212 -173 17 0 63 46
73 73 10 31 -22 82 -118 186 -117 127 -126 142 -103 184 10 18 58 76 108 131
108 116 127 152 104 196 -13 26 -51 60 -65 60 -3 0 -20 -8 -38 -17z"/>
<path d="M2049 2690 c-87 -11 -107 -22 -115 -67 -10 -54 3 -622 15 -662 13
-43 25 -51 81 -51 63 0 87 20 96 78 10 73 28 100 71 108 23 4 52 2 77 -7 35
-12 44 -23 80 -92 24 -46 51 -85 66 -93 34 -18 101 -17 128 2 29 20 28 47 -8
144 -33 90 -38 155 -15 201 42 79 38 195 -7 287 -29 56 -104 125 -154 140 -53
15 -234 23 -315 12z m265 -199 c53 -33 71 -95 41 -138 -28 -41 -150 -58 -193
-27 -19 13 -22 24 -22 89 0 65 3 76 23 90 28 21 105 14 151 -14z"/>
<path d="M2944 2691 c-74 -12 -146 -55 -214 -128 -73 -77 -89 -124 -96 -283
-6 -108 -4 -118 17 -157 38 -68 163 -198 214 -223 57 -28 187 -38 265 -21 71
15 119 49 192 135 85 102 102 142 106 257 6 145 -10 191 -105 289 -93 98 -148
127 -253 134 -41 3 -98 1 -126 -3z m140 -191 c43 -16 108 -83 132 -135 42 -89
23 -178 -49 -242 -69 -60 -185 -70 -250 -20 -42 32 -93 107 -109 160 -11 35
-9 44 12 84 32 60 92 127 132 146 37 19 94 22 132 7z"/>
<path d="M3579 2694 c-37 -11 -41 -49 -47 -431 l-5 -373 70 0 c112 0 107 -9
111 245 l3 216 116 -153 c119 -159 219 -269 265 -294 15 -8 54 -14 88 -14 l60
0 -2 403 -3 402 -67 0 c-48 0 -72 -5 -83 -16 -18 -17 -34 -147 -35 -269 0 -41
-3 -99 -6 -127 l-7 -53 -110 148 c-61 81 -132 172 -158 203 -73 85 -142 126
-190 113z"/>
<path d="M4625 2689 c-138 -20 -270 -168 -298 -335 -39 -225 135 -462 352
-481 167 -15 340 86 413 244 25 53 33 84 36 148 7 138 -36 243 -137 338 -63
59 -96 75 -178 87 -78 11 -105 11 -188 -1z m193 -206 c122 -76 150 -236 59
-339 -108 -124 -306 -85 -348 69 -39 144 79 318 205 303 21 -2 59 -17 84 -33z"/>
</g>
</svg>
