<?xml version="1.0" standalone="no"?>
<!DOCTYPE svg PUBLIC "-//W3C//DTD SVG 20010904//EN"
 "http://www.w3.org/TR/2001/REC-SVG-20010904/DTD/svg10.dtd">
<svg version="1.0" xmlns="http://www.w3.org/2000/svg"
 width="200.000000pt" height="200.000000pt" viewBox="0 0 200.000000 200.000000"
 preserveAspectRatio="xMidYMid meet">

<g transform="translate(0.000000,200.000000) scale(0.100000,-0.100000)"
fill="#000000" stroke="none">
<path d="M736 1444 c-32 -31 -10 -74 37 -74 18 0 91 -25 161 -55 70 -30 133
-55 139 -55 14 0 60 107 52 121 -13 19 -36 8 -52 -26 -9 -19 -20 -35 -25 -35
-15 0 -223 94 -226 102 -15 37 -60 48 -86 22z m59 -29 c0 -25 -4 -30 -25 -30
-16 0 -26 6 -28 18 -6 30 6 49 30 45 18 -2 23 -9 23 -33z"/>
<path d="M1195 1444 c-8 -9 -15 -30 -14 -47 1 -20 -20 -82 -55 -161 -31 -72
-56 -133 -56 -137 0 -3 28 -19 62 -33 59 -26 63 -26 75 -10 19 26 17 32 -27
51 l-39 18 47 113 c28 65 57 119 70 128 28 20 30 69 3 84 -28 14 -47 13 -66
-6z m53 -13 c21 -13 10 -46 -16 -49 -27 -4 -40 22 -22 43 14 17 20 18 38 6z"/>
<path d="M916 1434 c-3 -9 -6 -19 -6 -23 0 -9 129 -66 134 -60 2 2 7 14 10 26
6 20 1 26 -50 48 -66 29 -80 31 -88 9z"/>
<path d="M787 1303 c-18 -17 -5 -42 28 -54 19 -7 35 -16 35 -20 0 -20 -93
-226 -110 -244 -26 -27 -25 -57 1 -81 19 -17 23 -17 47 -3 22 12 27 22 28 54
0 24 21 90 52 165 29 68 52 129 52 136 0 6 -25 21 -56 33 -61 23 -67 24 -77
14z m10 -349 c4 -11 -1 -22 -12 -31 -16 -11 -21 -11 -33 1 -8 8 -12 22 -9 30
8 21 46 21 54 0z"/>
<path d="M1198 1198 c-26 -62 -26 -63 -5 -71 24 -9 20 -14 51 57 21 46 24 61
14 68 -25 16 -35 7 -60 -54z"/>
<path d="M751 1174 c-26 -68 -26 -70 -2 -77 15 -4 24 7 45 56 27 63 26 77 -3
77 -13 0 -25 -17 -40 -56z"/>
<path d="M888 1041 c-19 -43 -23 -62 -15 -70 20 -20 34 -12 50 29 15 38 17 40
43 30 110 -42 203 -88 226 -112 23 -25 29 -27 51 -17 53 24 33 89 -26 88 -18
-1 -82 21 -147 48 -169 73 -152 73 -182 4z m362 -76 c18 -22 8 -50 -19 -50
-32 0 -49 28 -32 49 17 20 35 20 51 1z"/>
<path d="M941 984 c-11 -24 -9 -26 55 -55 37 -16 68 -28 69 -27 1 2 8 13 14
26 11 21 9 24 -36 43 -92 40 -89 40 -102 13z"/>
<path d="M448 734 l-43 -46 -5 38 c-4 34 -9 39 -30 39 l-25 0 0 -110 0 -110
28 -3 c26 -3 27 -1 27 40 l0 43 46 -48 c37 -38 49 -45 60 -36 21 18 17 32 -21
69 -19 19 -35 39 -35 45 0 6 16 26 35 45 38 37 42 51 21 69 -11 10 -23 3 -58
-35z"/>
<path d="M1532 770 c-31 -13 -48 -54 -36 -88 7 -19 22 -31 54 -43 25 -9 46
-23 48 -32 5 -24 -28 -29 -58 -7 -25 18 -29 18 -41 4 -16 -20 -3 -44 35 -62
54 -27 119 10 119 68 0 38 -17 58 -59 66 -42 8 -60 27 -40 43 11 9 20 10 36 1
25 -13 50 -7 50 13 0 31 -66 54 -108 37z"/>
<path d="M554 757 c-2 -7 -3 -58 -2 -113 3 -98 3 -99 28 -99 20 0 26 6 28 28
3 21 8 27 29 27 18 0 28 -8 36 -30 8 -20 18 -30 33 -30 31 0 35 9 19 47 -10
24 -12 40 -5 53 18 33 11 79 -15 105 -20 21 -34 25 -85 25 -41 0 -62 -4 -66
-13z m116 -52 c19 -23 4 -45 -30 -45 -27 0 -30 3 -30 30 0 25 4 30 24 30 13 0
29 -7 36 -15z"/>
<path d="M789 742 c-26 -23 -33 -38 -36 -79 -5 -47 -3 -53 30 -89 31 -35 41
-39 82 -39 41 0 51 4 81 37 28 32 34 45 34 84 0 39 -5 51 -34 80 -29 29 -41
34 -80 34 -36 0 -52 -6 -77 -28z m123 -53 c37 -49 -5 -110 -65 -96 -21 6 -47
42 -47 66 0 5 10 20 21 35 27 34 64 32 91 -5z"/>
<path d="M1010 655 l0 -115 25 0 c24 0 25 2 25 66 l0 67 50 -67 c38 -50 57
-66 75 -66 l25 0 0 115 0 115 -25 0 c-23 0 -24 -3 -27 -67 l-3 -68 -50 67
c-35 47 -57 67 -72 68 -23 0 -23 -2 -23 -115z"/>
<path d="M1272 741 c-95 -95 7 -252 126 -194 77 37 92 137 30 195 -24 23 -39
28 -78 28 -40 0 -53 -5 -78 -29z m118 -41 c58 -58 -21 -148 -82 -93 -37 34 -8
113 42 113 11 0 29 -9 40 -20z"/>
</g>
</svg>
